<svg width="198" height="55" viewBox="0 0 198 55" fill="none" xmlns="http://www.w3.org/2000/svg">
<rect x="1" y="1" width="196" height="53" rx="26.5" fill="#F7E1BC" fill-opacity="0.1"/>
<rect x="1" y="1" width="196" height="53" rx="26.5" stroke="url(#paint0_linear_12_638)" stroke-width="2"/>
<path d="M50.32 35.4V36H55.72V34.416C54.88 34.776 53.944 35.016 52.864 35.184C54.088 34.896 54.064 34.032 54.064 33.144V27.264H55.696C56.44 27.528 56.968 28.392 57.448 29.472L59.2 33.336C59.536 34.056 60.424 36 61.336 36H64.072V35.4C62.608 35.4 61.768 34.32 61.144 32.928L59.512 29.136C59.056 28.056 58.48 27.432 57.88 27.264C58.96 27.264 59.824 27.12 60.424 26.808C61.624 26.184 62.368 24.696 62.344 23.568C62.344 20.76 60.448 19.2 55.816 19.2H50.32V20.784C51.136 20.472 51.952 20.184 52.816 20.016C51.88 20.664 51.976 21.24 51.976 21.888V32.256C51.976 33.984 52.144 34.968 50.32 35.4ZM55.72 19.8C55.912 19.776 56.128 19.752 56.32 19.752C58.672 19.752 60.112 21.408 60.112 23.688C60.112 24.6 59.872 25.296 59.416 25.776C58.48 26.784 57.52 26.928 55.768 26.928H54.064V22.944C54.064 21.24 53.92 20.088 55.72 19.8ZM64.9143 30.024C64.9143 33.912 67.4583 36.384 70.7703 36.384C73.0023 36.384 74.5623 35.304 75.9783 33.648L75.5223 33.264C74.4423 34.2 72.9063 35.16 71.3463 35.16C68.5383 35.16 67.0263 32.616 67.3143 28.392H75.8343C75.8343 27.312 75.3063 25.776 74.3943 24.912C73.5063 24.048 72.3063 23.616 70.9622 23.616C67.3623 23.616 64.9143 26.664 64.9143 30.024ZM70.9863 24.216C72.5463 24.216 73.4583 25.416 73.7943 26.808C73.9863 27.576 74.3943 27.984 75.0423 28.056H67.3623C67.8663 25.584 69.1383 24.216 70.9863 24.216ZM78.1621 27.096C78.1621 29.52 80.3461 30.288 82.2661 31.032C83.7541 31.608 85.0981 32.232 85.0981 33.552C85.0981 34.848 83.6821 35.448 82.4581 35.448C80.5621 35.448 79.1461 34.032 78.7621 32.04H78.1621V36.168H79.7461C79.2661 35.496 78.9781 35.04 78.8341 34.2C79.8181 35.928 81.2821 36.384 82.8901 36.384C84.9301 36.384 87.0421 35.28 87.0421 32.856C87.0421 30.696 85.1221 29.88 83.2981 29.112C81.6181 28.44 80.0341 27.816 80.0341 26.328C80.0341 25.368 80.9221 24.504 82.3861 24.504C84.4741 24.504 85.3861 25.8 85.6021 27.936H86.2021V24H84.6181C85.1461 24.528 85.3621 24.912 85.4821 25.656C85.0741 24.744 84.5461 24.168 83.8981 23.952C83.2501 23.736 82.6981 23.616 82.2661 23.616C79.0261 23.616 78.1621 25.752 78.1621 27.096ZM89.0314 30.024C89.0314 33.912 91.5754 36.384 94.8874 36.384C97.1194 36.384 98.6794 35.304 100.095 33.648L99.6394 33.264C98.5594 34.2 97.0234 35.16 95.4634 35.16C92.6554 35.16 91.1434 32.616 91.4314 28.392H99.9514C99.9514 27.312 99.4234 25.776 98.5114 24.912C97.6234 24.048 96.4234 23.616 95.0794 23.616C91.4794 23.616 89.0314 26.664 89.0314 30.024ZM95.1034 24.216C96.6634 24.216 97.5754 25.416 97.9114 26.808C98.1034 27.576 98.5114 27.984 99.1594 28.056H91.4794C91.9834 25.584 93.2554 24.216 95.1034 24.216ZM101.895 35.28V36H107.055V34.416C106.215 34.776 105.351 35.016 104.439 35.184C105.663 34.896 105.639 34.032 105.639 33.144V26.472C106.191 25.728 107.079 24.624 108.111 24.624C108.399 24.624 108.711 24.72 109.023 24.936C108.927 25.632 109.407 26.208 110.103 26.28C110.775 26.28 111.327 25.8 111.327 25.104C111.327 24.048 110.511 23.616 109.623 23.616C107.943 23.616 106.263 24.96 105.639 26.136V24H101.895V25.584C102.711 25.272 103.527 24.984 104.391 24.816C103.455 25.464 103.551 26.04 103.551 26.688V32.256C103.551 33.96 103.719 35.088 101.895 35.28ZM111.816 25.584C112.632 25.272 113.448 24.984 114.312 24.816C113.352 25.392 113.016 26.352 113.856 28.248L117.264 36H118.224L121.344 27.96C122.232 25.728 122.52 24.768 123.672 24.6V24H119.88V24.6H122.088C121.224 24.888 120.984 25.8 120.696 26.568L118.8 31.752C118.608 32.256 118.416 32.832 118.248 33.312H118.224L115.68 27.384L114.312 24H111.816V25.584ZM124.656 30.024C124.656 33.912 127.2 36.384 130.512 36.384C132.744 36.384 134.304 35.304 135.72 33.648L135.264 33.264C134.184 34.2 132.648 35.16 131.088 35.16C128.28 35.16 126.768 32.616 127.056 28.392H135.576C135.576 27.312 135.048 25.776 134.136 24.912C133.248 24.048 132.048 23.616 130.704 23.616C127.104 23.616 124.656 26.664 124.656 30.024ZM130.728 24.216C132.288 24.216 133.2 25.416 133.536 26.808C133.728 27.576 134.136 27.984 134.784 28.056H127.104C127.608 25.584 128.88 24.216 130.728 24.216Z" fill="#F8E4BE"/>
<defs>
<linearGradient id="paint0_linear_12_638" x1="145.133" y1="-12.7851" x2="61.0307" y2="93.0723" gradientUnits="userSpaceOnUse">
<stop stop-color="#E0A872"/>
<stop offset="0.444501" stop-color="#F8E4BE"/>
<stop offset="0.549712" stop-color="#FFF3E0"/>
<stop offset="1" stop-color="#E0A872"/>
</linearGradient>
</defs>
</svg>
