<svg width="21" height="17" viewBox="0 0 21 17" fill="none" xmlns="http://www.w3.org/2000/svg">
<path d="M15.5 11.5C14.8 11.5 14.2083 11.2583 13.725 10.775C13.2417 10.2917 13 9.7 13 9C13 8.3 13.2417 7.70833 13.725 7.225C14.2083 6.74167 14.8 6.5 15.5 6.5C16.2 6.5 16.7917 6.74167 17.275 7.225C17.7583 7.70833 18 8.3 18 9C18 9.7 17.7583 10.2917 17.275 10.775C16.7917 11.2583 16.2 11.5 15.5 11.5ZM10.5 16.5V15.1C10.5 14.7 10.604 14.3293 10.812 13.988C11.0207 13.646 11.3167 13.4 11.7 13.25C12.3 13 12.921 12.8127 13.563 12.688C14.2043 12.5627 14.85 12.5 15.5 12.5C16.15 12.5 16.796 12.5627 17.438 12.688C18.0793 12.8127 18.7 13 19.3 13.25C19.6833 13.4 19.9793 13.646 20.188 13.988C20.396 14.3293 20.5 14.7 20.5 15.1V16.5H10.5ZM8.5 8.5C7.4 8.5 6.45833 8.10833 5.675 7.325C4.89167 6.54167 4.5 5.6 4.5 4.5C4.5 3.4 4.89167 2.45833 5.675 1.675C6.45833 0.891667 7.4 0.5 8.5 0.5C9.6 0.5 10.5417 0.891667 11.325 1.675C12.1083 2.45833 12.5 3.4 12.5 4.5C12.5 5.6 12.1083 6.54167 11.325 7.325C10.5417 8.10833 9.6 8.5 8.5 8.5ZM0.5 16.5V13.7C0.5 13.1333 0.641667 12.6123 0.925 12.137C1.20833 11.6623 1.6 11.3 2.1 11.05C3.1 10.55 4.13767 10.1667 5.213 9.9C6.28767 9.63333 7.38333 9.5 8.5 9.5C9.08333 9.5 9.66667 9.55 10.25 9.65C10.8333 9.75 11.4167 9.86667 12 10L11.15 10.85L10.3 11.7C10 11.6167 9.7 11.5623 9.4 11.537C9.1 11.5123 8.8 11.5 8.5 11.5C7.53333 11.5 6.58767 11.6167 5.663 11.85C4.73767 12.0833 3.85 12.4167 3 12.85C2.83333 12.9333 2.70833 13.05 2.625 13.2C2.54167 13.35 2.5 13.5167 2.5 13.7V14.5H8.5V16.5H0.5ZM8.5 6.5C9.05 6.5 9.521 6.304 9.913 5.912C10.3043 5.52067 10.5 5.05 10.5 4.5C10.5 3.95 10.3043 3.47933 9.913 3.088C9.521 2.696 9.05 2.5 8.5 2.5C7.95 2.5 7.47933 2.696 7.088 3.088C6.696 3.47933 6.5 3.95 6.5 4.5C6.5 5.05 6.696 5.52067 7.088 5.912C7.47933 6.304 7.95 6.5 8.5 6.5Z" fill="#A4663C"/>
</svg>
