<svg width="100" height="78" viewBox="0 0 100 78" fill="none" xmlns="http://www.w3.org/2000/svg">
<path d="M99.0067 26.0528C99.4206 22.453 99.2854 18.8113 98.6055 15.2522C97.6939 10.7635 95.1599 6.76809 91.4881 4.02987C87.8162 1.29164 83.2641 0.00263715 78.7017 0.409256C75.0998 0.764784 71.5726 1.66478 68.2407 3.07852C61.4826 5.90209 54.9869 11.5338 49.6483 18.6621C44.3098 25.7905 40.7148 33.6131 39.897 40.9112C39.7415 42.2579 39.6848 43.6141 39.7273 44.9691C39.8215 48.2164 40.647 51.4005 42.1422 54.2846C43.6374 57.1687 45.7639 59.6784 48.3633 61.6268C50.9628 63.5753 53.9682 64.9124 57.1559 65.5385C60.3437 66.1646 63.6316 66.0637 66.7749 65.2432C68.1054 64.886 69.4097 64.4375 70.6785 63.9009C77.4519 61.0773 83.9323 55.4302 89.2708 48.3018C94.6094 41.1735 98.189 33.3508 99.0067 26.0528Z" fill="#F8E4BE"/>
<path d="M95.1031 10.4695C99.2536 19.0482 98.0809 29.1235 94.2082 37.5633C89.9831 47.0234 83.0245 55.0031 74.2272 60.4759C70.3947 62.8238 66.0206 64.1419 61.5289 64.3023C70.3236 63.7777 78.0845 57.8375 83.7779 51.5423C90.5205 44.0899 96.1985 34.5701 97.0626 24.3404C97.5468 19.6262 96.8742 14.8651 95.1031 10.4695Z" fill="#54372B"/>
<path d="M89.5948 10.3921L89.0239 10.8858C88.6536 11.2253 88.1136 11.7344 87.481 12.4288C85.8018 14.3802 84.2554 16.4421 82.8522 18.6005C81.9727 19.9274 80.8926 21.316 79.9206 22.8281C78.9203 24.4321 78.1075 26.1457 77.4982 27.9352C76.8765 29.862 76.488 31.8563 76.341 33.8755C76.156 36.0184 75.7579 38.1375 75.1529 40.2015C74.4908 42.2861 73.4092 44.2131 71.9745 45.8641C70.56 47.4171 69.0111 48.8422 67.3457 50.1226C65.8028 51.3878 64.2599 52.4832 62.7169 53.5324C61.3148 54.5269 59.8625 55.4488 58.3659 56.2943C56.1102 57.5806 53.677 58.5268 51.1449 59.1024C50.2346 59.303 49.5094 59.3956 49.0157 59.4727L48.2442 59.5499L49.0003 59.4264C49.494 59.3338 50.2192 59.195 51.1141 58.9481C53.573 58.2411 55.9244 57.203 58.1036 55.8623C59.5654 54.9687 60.9767 53.9952 62.3312 52.9461C63.8741 51.8661 65.4171 50.7089 66.96 49.4591C68.5406 48.1912 70.0115 46.7925 71.3573 45.2778C72.6936 43.7005 73.6961 41.8686 74.3044 39.8929C74.9061 37.8791 75.3142 35.8125 75.5233 33.7212C75.6887 31.621 76.1084 29.5486 76.7731 27.5495C77.4245 25.7097 78.3113 23.9619 79.4114 22.3498C80.4606 20.8069 81.5407 19.4954 82.4973 18.1839C84.0046 16.0844 85.6707 14.1037 87.481 12.259C88.1445 11.611 88.6999 11.1327 89.0239 10.8087L89.5948 10.3921Z" fill="#54372B"/>
<path d="M89.2091 8.20093C85.506 11.1171 83.4848 14.6504 80.3526 18.4923C77.1895 22.0741 75.0566 26.4466 74.1809 31.1443C73.922 34.0272 73.4371 36.8852 72.7306 39.6921C71.0488 44.7375 65.7411 48.0548 61.5752 51.2641C57.4093 54.4734 53.2125 56.973 47.982 57.5901C51.4623 55.0661 54.7149 52.242 57.7024 49.1503C60.6363 45.6466 62.7455 41.5284 63.8741 37.1C65.0776 33.1347 64.8771 28.7682 66.5126 24.88C68.5647 20.0352 73.2243 16.7333 77.4982 13.6783C81.2784 11.0091 84.5803 8.74095 89.2091 8.20093Z" fill="#54372B"/>
<path d="M22.863 22.7665C19.2335 23.0475 15.6687 23.8853 12.294 25.2506C8.06237 27.0056 4.62771 30.2612 2.64874 34.3928C0.669777 38.5244 0.285851 43.2412 1.5706 47.6385C2.60714 51.1012 4.16819 54.3846 6.19939 57.3744C10.2882 63.469 16.9999 68.7612 25.0849 72.6185C33.1698 76.4759 41.4862 78.4971 48.7997 77.8954C50.1491 77.7786 51.4892 77.5724 52.8113 77.2782C55.9842 76.565 58.9551 75.1445 61.5024 73.1228C64.0497 71.1012 66.1076 68.5304 67.5227 65.6024C68.9377 62.6743 69.6734 59.4645 69.6749 56.2125C69.6763 52.9604 68.9434 49.75 67.5309 46.8207C66.9443 45.5834 66.2742 44.3874 65.5251 43.2411C61.4517 37.1466 54.7246 31.8697 46.6242 28.0124C38.5238 24.1551 30.1765 22.1493 22.863 22.7665Z" fill="#F8E4BE"/>
<path d="M8.3132 29.5862C15.8273 23.939 25.7946 23.075 34.7436 25.158C44.9688 27.4332 54.2645 32.7535 61.4054 40.4175C64.4324 43.7336 66.5574 47.7713 67.5771 52.1438C65.3553 43.6114 58.0418 37.1465 50.7592 32.78C42.1342 27.5958 31.6732 23.8773 21.4435 25.0654C16.7685 25.5019 12.2661 27.0521 8.3132 29.5862Z" fill="#54372B"/>
<path d="M9.30067 35.0173L9.90242 35.4802C10.3036 35.7734 10.9053 36.2054 11.6922 36.6837C13.9202 37.964 16.2292 39.0978 18.6045 40.0782C20.1475 40.6953 21.6904 41.4822 23.3259 42.1457C25.0916 42.8196 26.9298 43.2856 28.8033 43.5343C30.8119 43.7811 32.8431 43.7811 34.8516 43.5343C36.9912 43.3257 39.146 43.3257 41.2856 43.5343C43.4594 43.7791 45.5599 44.467 47.4574 45.5556C49.2425 46.6193 50.9308 47.8377 52.5027 49.1969C54.0457 50.4929 55.4343 51.8507 56.7612 53.1159C58.0232 54.2977 59.2231 55.544 60.3562 56.8498C62.0543 58.8142 63.4529 61.0187 64.5067 63.3918C64.877 64.2559 65.1239 64.9348 65.2782 65.4285L65.4942 66.1537L65.2319 65.4285C65.0468 64.9656 64.769 64.2867 64.3524 63.469C63.185 61.1857 61.7107 59.0728 59.9705 57.1893C58.9059 56.0166 57.6561 54.844 56.2983 53.6096C54.9405 52.3753 53.5211 51.0792 51.9936 49.814C50.4388 48.4792 48.7714 47.2815 47.0099 46.2344C45.2042 45.2321 43.2157 44.6025 41.1622 44.3829C39.0841 44.1824 36.9915 44.1824 34.9133 44.3829C32.8637 44.6329 30.7913 44.6329 28.7416 44.3829C26.8032 44.1259 24.9087 43.6068 23.1099 42.84C21.3973 42.0994 19.9006 41.2971 18.4811 40.6336C16.1263 39.5676 13.8612 38.3138 11.7076 36.8843C10.9362 36.3597 10.3653 35.8968 9.97957 35.5882L9.30067 35.0173Z" fill="#54372B"/>
<path d="M7.23315 35.8196C10.8128 38.9054 14.6546 40.1861 19.0366 42.5159C23.1576 44.9236 27.8574 46.1612 32.6298 46.0955C35.5099 45.7949 38.409 45.7175 41.301 45.8641C46.5779 46.5584 50.8518 51.1255 54.8171 54.5816C58.7825 58.0378 62.038 61.6945 63.6427 66.6936C60.4909 63.7746 57.0943 61.1317 53.4902 58.7938C49.4838 56.5898 45.0335 55.3138 40.4679 55.0599C36.3328 54.6433 32.0898 55.6925 27.9701 54.8285C22.8168 53.7484 18.7126 49.8294 14.8552 46.2189C11.5225 43.0559 8.65265 40.2478 7.23315 35.8196Z" fill="#54372B"/>
</svg>
