<svg width="22" height="37" viewBox="0 0 22 37" fill="none" xmlns="http://www.w3.org/2000/svg">
<path d="M17.1094 35.5625L1.3125 19.8125C1.125 19.625 0.9925 19.4219 0.915 19.2031C0.83625 18.9844 0.796875 18.75 0.796875 18.5C0.796875 18.25 0.83625 18.0156 0.915 17.7969C0.9925 17.5781 1.125 17.375 1.3125 17.1875L17.1094 1.39062C17.5469 0.953125 18.0937 0.734375 18.75 0.734375C19.4062 0.734375 19.9687 0.96875 20.4375 1.4375C20.9062 1.90625 21.1406 2.45312 21.1406 3.07812C21.1406 3.70312 20.9062 4.25 20.4375 4.71875L6.65625 18.5L20.4375 32.2812C20.875 32.7188 21.0937 33.2575 21.0937 33.8975C21.0937 34.5387 20.8594 35.0938 20.3906 35.5625C19.9219 36.0312 19.375 36.2656 18.75 36.2656C18.125 36.2656 17.5781 36.0312 17.1094 35.5625Z" fill="#F8E4BE"/>
</svg>
