<svg width="23" height="22" viewBox="0 0 23 22" fill="none" xmlns="http://www.w3.org/2000/svg">
<path d="M11.3629 17.8965L6.04993 21.0971C5.81522 21.2465 5.56984 21.3105 5.31379 21.2891C5.05774 21.2678 4.8337 21.1825 4.64166 21.0331C4.44963 20.8837 4.30026 20.6972 4.19358 20.4736C4.08689 20.2492 4.06555 19.9982 4.12956 19.7208L5.53783 13.6717L0.832941 9.60693C0.619568 9.41489 0.486422 9.19597 0.433506 8.95016C0.379736 8.70521 0.395525 8.46538 0.480875 8.23067C0.566224 7.99596 0.694248 7.80392 0.864947 7.65456C1.03565 7.5052 1.27036 7.40918 1.56908 7.3665L7.77825 6.8224L10.1787 1.12532C10.2854 0.869275 10.451 0.677238 10.6754 0.549214C10.8991 0.42119 11.1282 0.357178 11.3629 0.357178C11.5976 0.357178 11.8272 0.42119 12.0517 0.549214C12.2753 0.677238 12.4405 0.869275 12.5472 1.12532L14.9476 6.8224L21.1568 7.3665C21.4555 7.40918 21.6902 7.5052 21.8609 7.65456C22.0316 7.80392 22.1596 7.99596 22.245 8.23067C22.3303 8.46538 22.3466 8.70521 22.2936 8.95016C22.2399 9.19597 22.1063 9.41489 21.8929 9.60693L17.188 13.6717L18.5963 19.7208C18.6603 19.9982 18.639 20.2492 18.5323 20.4736C18.4256 20.6972 18.2762 20.8837 18.0842 21.0331C17.8922 21.1825 17.6681 21.2678 17.4121 21.2891C17.156 21.3105 16.9106 21.2465 16.6759 21.0971L11.3629 17.8965Z" fill="url(#paint0_linear_12_3555)"/>
<defs>
<linearGradient id="paint0_linear_12_3555" x1="16.4708" y1="-4.50951" x2="-4.74849" y2="3.25875" gradientUnits="userSpaceOnUse">
<stop stop-color="#E0A872"/>
<stop offset="0.444501" stop-color="#F8E4BE"/>
<stop offset="0.549712" stop-color="#FFF3E0"/>
<stop offset="1" stop-color="#E0A872"/>
</linearGradient>
</defs>
</svg>
