<svg width="23" height="22" viewBox="0 0 23 22" fill="none" xmlns="http://www.w3.org/2000/svg">
<path d="M11.6371 4.90204V14.8879L15.6699 17.3524L14.6137 12.7435L18.1664 9.67094L13.4935 9.25486L11.6371 4.90204ZM11.6371 17.8965L6.32414 21.0971C6.08943 21.2465 5.84405 21.3105 5.588 21.2891C5.33196 21.2678 5.10791 21.1825 4.91588 21.0331C4.72384 20.8837 4.57448 20.6972 4.46779 20.4736C4.36111 20.2492 4.33977 19.9982 4.40378 19.7208L5.81205 13.6717L1.10716 9.60693C0.893783 9.41489 0.760638 9.19597 0.707722 8.95016C0.653951 8.70521 0.669741 8.46538 0.75509 8.23067C0.84044 7.99596 0.968464 7.80392 1.13916 7.65456C1.30986 7.5052 1.54457 7.40918 1.8433 7.3665L8.05247 6.8224L10.4529 1.12532C10.5596 0.869275 10.7252 0.677238 10.9497 0.549214C11.1733 0.42119 11.4024 0.357178 11.6371 0.357178C11.8719 0.357178 12.1014 0.42119 12.3259 0.549214C12.5495 0.677238 12.7147 0.869275 12.8214 1.12532L15.2218 6.8224L21.431 7.3665C21.7297 7.40918 21.9644 7.5052 22.1351 7.65456C22.3058 7.80392 22.4339 7.99596 22.5192 8.23067C22.6046 8.46538 22.6208 8.70521 22.5679 8.95016C22.5141 9.19597 22.3805 9.41489 22.1671 9.60693L17.4622 13.6717L18.8705 19.7208C18.9345 19.9982 18.9132 20.2492 18.8065 20.4736C18.6998 20.6972 18.5505 20.8837 18.3584 21.0331C18.1664 21.1825 17.9423 21.2678 17.6863 21.2891C17.4302 21.3105 17.1849 21.2465 16.9501 21.0971L11.6371 17.8965Z" fill="url(#paint0_linear_12_3561)"/>
<defs>
<linearGradient id="paint0_linear_12_3561" x1="16.745" y1="-4.50951" x2="-4.47427" y2="3.25875" gradientUnits="userSpaceOnUse">
<stop stop-color="#E0A872"/>
<stop offset="0.444501" stop-color="#F8E4BE"/>
<stop offset="0.549712" stop-color="#FFF3E0"/>
<stop offset="1" stop-color="#E0A872"/>
</linearGradient>
</defs>
</svg>
