<svg width="33" height="30" viewBox="0 0 33 30" fill="none" xmlns="http://www.w3.org/2000/svg">
<path d="M13.375 27.4375C13.375 27.7713 13.276 28.0975 13.0906 28.375C12.9052 28.6525 12.6416 28.8688 12.3333 28.9965C12.0249 29.1243 11.6856 29.1577 11.3583 29.0926C11.0309 29.0275 10.7303 28.8667 10.4943 28.6307C10.2583 28.3947 10.0975 28.0941 10.0324 27.7667C9.96731 27.4394 10.0007 27.1001 10.1285 26.7917C10.2562 26.4834 10.4725 26.2198 10.75 26.0344C11.0275 25.849 11.3537 25.75 11.6875 25.75C12.1351 25.75 12.5643 25.9278 12.8807 26.2443C13.1972 26.5607 13.375 26.9899 13.375 27.4375ZM26.3125 25.75C25.9787 25.75 25.6525 25.849 25.375 26.0344C25.0975 26.2198 24.8812 26.4834 24.7535 26.7917C24.6257 27.1001 24.5923 27.4394 24.6574 27.7667C24.7225 28.0941 24.8833 28.3947 25.1193 28.6307C25.3553 28.8667 25.6559 29.0275 25.9833 29.0926C26.3106 29.1577 26.6499 29.1243 26.9583 28.9965C27.2666 28.8688 27.5302 28.6525 27.7156 28.375C27.901 28.0975 28 27.7713 28 27.4375C28 26.9899 27.8222 26.5607 27.5057 26.2443C27.1893 25.9278 26.7601 25.75 26.3125 25.75ZM32.1625 7.34219L28.45 20.3359C28.2754 20.9215 27.9175 21.4357 27.429 21.8027C26.9404 22.1698 26.347 22.3704 25.7359 22.375H12.2641C11.653 22.3704 11.0596 22.1698 10.571 21.8027C10.0825 21.4357 9.72458 20.9215 9.55 20.3359L5.85156 7.35625V7.32812L4.47344 2.53281C4.43745 2.41524 4.36482 2.31225 4.26616 2.23889C4.16749 2.16552 4.04795 2.12561 3.925 2.125H1.5625C1.41332 2.125 1.27024 2.06574 1.16475 1.96025C1.05926 1.85476 1 1.71168 1 1.5625C1 1.41332 1.05926 1.27024 1.16475 1.16475C1.27024 1.05926 1.41332 1 1.5625 1H3.925C4.29257 1.00038 4.65013 1.11977 4.94418 1.34031C5.23823 1.56085 5.45297 1.87068 5.55625 2.22344L6.80781 6.625H31.6141C31.7016 6.62387 31.7881 6.64371 31.8664 6.68286C31.9447 6.722 32.0125 6.77931 32.0641 6.85C32.1175 6.91882 32.1541 6.99909 32.1712 7.08451C32.1883 7.16992 32.1853 7.25813 32.1625 7.34219ZM30.8687 7.75H7.13125L10.6328 20.0266C10.7361 20.3793 10.9508 20.6891 11.2449 20.9097C11.5389 21.1302 11.8965 21.2496 12.2641 21.25H25.7359C26.1035 21.2496 26.4611 21.1302 26.7551 20.9097C27.0492 20.6891 27.2639 20.3793 27.3672 20.0266L30.8687 7.75Z" fill="#F8E4BE" stroke="#F8E4BE" stroke-width="0.5"/>
</svg>
